<svg xmlns="http://www.w3.org/2000/svg" viewBox="0 0 222 66.725">
  <defs>
    <style>
      .cls-1 {
        fill: #007c61;
      }

      .cls-2 {
        fill: #8fb435;
      }

      .cls-3 {
        fill: #00514c;
      }
    </style>
  </defs>
  <g id="Group_58" data-name="Group 58" transform="translate(0 0.025)">
    <g id="Group_62" data-name="Group 62" transform="translate(140.903 -0.025)">
      <g id="Group_59" data-name="Group 59" transform="translate(5.218)">
        <g id="Group_58-2" data-name="Group 58">
          <path id="Path_88" data-name="Path 88" class="cls-1" d="M321.7,42.368h0c-.3.2-.553.05-.352-.352L340.7.39h0a.646.646,0,0,1,1.207,0h0l14.831,31.924h0c.151.3.05.5-.3.5h0C345.776,32.816,334.364,34.173,321.7,42.368Zm-3.72.6c.251,0,.3-.151.2-.452h0L307.92,20.5h0a.646.646,0,0,0-1.207,0h0L290.727,54.886h0c-.251.553.2.654.4.352h0c6.284-7.843,17.5-11.563,26.846-12.267Z" transform="translate(-290.653 0.025)"/>
        </g>
      </g>
      <g id="Group_61" data-name="Group 61" transform="translate(0 39.125)">
        <g id="Group_60" data-name="Group 60">
          <path id="Path_89" data-name="Path 89" class="cls-2" d="M309.546,86.648a64.98,64.98,0,0,0-9.854,12.468h0c-.251.4-.352.6-.855.654h0a54.241,54.241,0,0,0-18.35,5.178h0c-.151.05-.251-.05-.2-.2,1.357-2.564,9.451-16.188,29.058-18.5.3.05.4.2.2.4Zm45.5-8.195a1.194,1.194,0,0,0-1.106-.654c-29.611.251-44.492,13.373-50.826,21.366-.151.2,0,.352.2.352h0c.754-.05,1.508-.05,2.262-.05,15.484,0,23.93,4.826,38.007,5.781,22.221,1.508,18.3-11.965,15.886-17.193Z" transform="translate(-280.274 -77.8)"/>
        </g>
      </g>
    </g>
    <path id="Path_90" data-name="Path 90" class="cls-3" d="M107.283,61.273h-4.474V57h4.474Zm-4.324,2.614V85.756h4.173V63.887Zm-4.625-.2A9.7,9.7,0,0,0,91.146,66.9l-.4-3.016H87.174V85.756h4.173V71.68a2.232,2.232,0,0,1,1.005-1.91,10.56,10.56,0,0,1,5.983-2.061C98.335,67.055,98.335,64.34,98.335,63.686Zm23.176,0a24.485,24.485,0,0,0-7.943,1.508l.654,3.318a19.763,19.763,0,0,1,6.737-1.458,6.24,6.24,0,0,1,3.72.9c.9.754,1.156,1.659,1.156,3.419v6.636c0,2.664-1.659,5.128-5.58,5.128-2.614,0-3.821-1.508-3.821-3.419,0-3.419,3.469-4.726,7.038-4.977V72.233c-7.993.251-11.412,3.117-11.412,7.843,0,4.122,3.117,6.385,6.988,6.385a8.535,8.535,0,0,0,6.787-2.916l.4,2.212h3.771V71.177C130.007,65.4,127.041,63.686,121.511,63.686Zm-61.535,0A9.435,9.435,0,0,0,52.787,66.9l-.4-3.016h-3.62V85.756h4.173V71.68a2.232,2.232,0,0,1,1.005-1.91,10.56,10.56,0,0,1,5.983-2.061C59.976,67.055,59.976,64.34,59.976,63.686Zm12.568,0A24.485,24.485,0,0,0,64.6,65.195l.654,3.318a19.763,19.763,0,0,1,6.737-1.458,6.24,6.24,0,0,1,3.72.9c.9.754,1.156,1.659,1.156,3.419v6.636c0,2.664-1.659,5.128-5.58,5.128-2.614,0-3.821-1.508-3.821-3.419,0-3.419,3.469-4.726,7.038-4.977V72.233c-7.993.251-11.412,3.117-11.412,7.843,0,4.122,3.117,6.385,6.988,6.385a8.535,8.535,0,0,0,6.787-2.916l.4,2.212h3.771V71.177C81.041,65.4,78.075,63.686,72.544,63.686Zm-63.093,0a24.485,24.485,0,0,0-7.943,1.508l.654,3.318A19.762,19.762,0,0,1,8.9,67.055a6.24,6.24,0,0,1,3.72.9c.9.754,1.156,1.659,1.156,3.419v6.636c0,2.664-1.659,5.128-5.58,5.128-2.614,0-3.821-1.508-3.821-3.419,0-3.419,3.469-4.726,7.038-4.977V72.233C3.419,72.434,0,75.3,0,80.075,0,84.2,3.117,86.46,6.988,86.46a8.535,8.535,0,0,0,6.787-2.916l.4,2.212h3.771V71.177C18,65.4,14.981,63.686,9.451,63.686ZM41.023,68.11a9.49,9.49,0,0,1,2.866-.654V63.686a7.686,7.686,0,0,0-4.726,2.363c-1.659-1.609-4.173-2.363-7.139-2.363-5.228,0-9.1,2.313-9.1,7.541a6.709,6.709,0,0,0,3.469,6.284h0c-1.357,1.76-3.167,4.575-3.167,5.832A1.986,1.986,0,0,0,25.388,85.3c1.257.05,5.228.151,6.887.3,1.609.1,5.731.2,5.731,2.916,0,2.313-2.212,3.217-5.58,3.217-7.038,0-5.48-3.921-5.329-4.424H24.131a4.226,4.226,0,0,0-.8,2.614c0,3.318,3.067,5.128,8.7,5.128,5.53,0,9.854-2.212,9.854-7.038a5.19,5.19,0,0,0-2.061-4.374c-1.307-.955-3.569-1.458-6.887-1.558l-5.279-.151a33.965,33.965,0,0,1,1.458-3.469,13.314,13.314,0,0,0,2.916.3c4.826,0,9.1-1.961,9.1-7.541a7.821,7.821,0,0,0-.3-2.313h0C40.571,68.312,40.772,68.161,41.023,68.11ZM31.974,75.4c-3.368,0-4.675-1.558-4.675-4.173,0-2.664,1.357-4.173,4.675-4.173,3.469,0,4.726,1.508,4.726,4.173C36.7,73.842,35.392,75.4,31.974,75.4Z" transform="translate(0 -28.357)"/>
  </g>
</svg>
